<svg width="268" height="45" viewBox="0 0 268 45" fill="none" xmlns="http://www.w3.org/2000/svg">
<path d="M7.14 14.1C8.7 13.32 9.54 11.1 10.38 9.6L11.58 10.2C10.74 11.76 9.6 13.62 9.6 15.42V43.44H17.46V1.44H7.92C7.92 5.46 4.38 8.64 0 8.64V15.84C2.22 15.84 4.92 15.18 7.14 14.1Z" fill="#508559"/>
<path d="M27.9061 22.44C27.9061 34.92 33.8461 44.4 45.4861 44.4C57.1261 44.4 63.0061 34.92 63.0061 22.44C63.0061 9.96 57.1261 0.54 45.4861 0.54C33.8461 0.54 27.9061 9.96 27.9061 22.44ZM36.0061 22.5C36.0061 15.06 38.7061 8.34 45.4861 8.34C52.2061 8.34 54.9061 15.06 54.9061 22.5C54.9061 29.88 52.2061 36.66 45.4861 36.66C38.7061 36.66 36.0061 29.88 36.0061 22.5Z" fill="#508559"/>
<path d="M63.6483 22.44C63.6483 34.92 69.5883 44.4 81.2283 44.4C92.8683 44.4 98.7483 34.92 98.7483 22.44C98.7483 9.96 92.8683 0.54 81.2283 0.54C69.5883 0.54 63.6483 9.96 63.6483 22.44ZM71.7483 22.5C71.7483 15.06 74.4483 8.34 81.2283 8.34C87.9483 8.34 90.6483 15.06 90.6483 22.5C90.6483 29.88 87.9483 36.66 81.2283 36.66C74.4483 36.66 71.7483 29.88 71.7483 22.5Z" fill="#508559"/>
<path d="M109.89 0C113.25 0 115.79 1.18 117.51 3.54C119.27 5.86 120.15 9.14 120.15 13.38C120.15 17.62 119.33 20.94 117.69 23.34C116.05 25.7 113.45 26.88 109.89 26.88C107.69 26.88 105.83 26.34 104.31 25.26C102.83 24.18 101.71 22.64 100.95 20.64C100.19 18.6 99.8105 16.18 99.8105 13.38C99.8105 9.14 100.61 5.86 102.21 3.54C103.81 1.18 106.37 0 109.89 0ZM109.95 6.12C108.99 6.12 108.29 6.72 107.85 7.92C107.41 9.12 107.19 10.96 107.19 13.44C107.19 15.88 107.41 17.72 107.85 18.96C108.29 20.2 108.99 20.82 109.95 20.82C110.91 20.82 111.61 20.2 112.05 18.96C112.53 17.72 112.77 15.88 112.77 13.44C112.77 10.96 112.53 9.12 112.05 7.92C111.61 6.72 110.91 6.12 109.95 6.12ZM140.31 0.599999L116.55 43.44H109.53L133.29 0.599999H140.31ZM139.89 17.1C142.13 17.1 144.01 17.64 145.53 18.72C147.05 19.76 148.19 21.28 148.95 23.28C149.75 25.24 150.15 27.64 150.15 30.48C150.15 34.72 149.33 38.04 147.69 40.44C146.05 42.8 143.45 43.98 139.89 43.98C137.69 43.98 135.83 43.44 134.31 42.36C132.83 41.28 131.71 39.74 130.95 37.74C130.19 35.7 129.81 33.28 129.81 30.48C129.81 26.24 130.61 22.96 132.21 20.64C133.81 18.28 136.37 17.1 139.89 17.1ZM139.95 23.22C138.99 23.22 138.29 23.82 137.85 25.02C137.41 26.22 137.19 28.06 137.19 30.54C137.19 32.98 137.41 34.82 137.85 36.06C138.29 37.3 138.99 37.92 139.95 37.92C140.91 37.92 141.61 37.32 142.05 36.12C142.53 34.88 142.77 33.02 142.77 30.54C142.77 28.06 142.53 26.22 142.05 25.02C141.61 23.82 140.91 23.22 139.95 23.22Z" fill="#508559"/>
<path d="M185.693 25.92C195.353 25.92 202.673 23.52 202.673 13.44C202.673 3.36 195.293 1.44 186.353 1.44H170.632V43.44H178.492V25.86C181.552 25.92 184.133 25.92 185.693 25.92ZM178.492 19.32V8.1H185.092C190.612 8.1 194.993 8.16 194.993 13.44C194.993 18.9 190.252 19.32 185.092 19.32H178.492Z" fill="#508559"/>
<path d="M216.863 15.54C215.003 16.92 214.043 19.92 213.143 22.02L211.883 21.48C212.783 19.38 214.043 16.62 214.043 14.34V13.44H206.723V43.44H214.043V30.36C214.043 22.02 221.783 19.38 229.223 19.38V12.54C223.343 12.54 220.043 13.08 216.863 15.54Z" fill="#508559"/>
<path d="M233.001 28.38C233.001 38.04 239.781 44.4 250.101 44.4C260.481 44.4 267.261 37.68 267.261 28.38C267.261 19.14 260.481 12.54 250.101 12.54C239.781 12.54 233.001 18.72 233.001 28.38ZM240.801 28.38C240.801 23.46 243.441 19.62 250.101 19.62C256.761 19.62 259.461 23.46 259.461 28.38C259.461 33.3 256.761 37.32 250.101 37.32C243.501 37.32 240.801 33.3 240.801 28.38Z" fill="#508559"/>
</svg>
