<svg width="138" height="24" viewBox="0 0 138 24" fill="none" xmlns="http://www.w3.org/2000/svg">
<g clip-path="url(#clip0_1167_1733)">
<path d="M12.2029 7.42941L4.5 12.0882L1.27059 14.0471L0.123529 13.4294L0.0617647 9.69706L0 4.65L7.67647 0L12.2029 7.42941Z" fill="#F26869"/>
<path d="M0.158936 15.9617L9.82952 21.1587L8.29423 23.9999L0.211877 19.6411L0.158936 15.9617Z" fill="#C0EBA6"/>
<path d="M12.4235 16.35L10.8706 19.2176L1.27059 14.047L0.123532 13.4294L0.0617676 9.69702L4.5 12.0882L12.4235 16.35Z" fill="#C0EBA6"/>
<path d="M8.55001 6.26478L8.54118 5.62066L6.79413 5.64713L7.62354 4.10301L7.05001 3.79419L6.22942 5.32066L5.32942 3.83831L4.77354 4.1736L5.67354 5.65595L3.9353 5.68242L3.94413 6.32654L5.70001 6.3089L4.8706 7.84419L5.4353 8.15301L6.25589 6.62654L7.16471 8.10889L7.71177 7.7736L6.81177 6.29125L8.55001 6.26478Z" fill="white"/>
<path d="M38.0029 7.58005C38.0153 8.4243 37.7681 9.25199 37.2946 9.9511C36.8212 10.6502 36.1444 11.187 35.3559 11.4889C36.2872 11.8292 37.0943 12.4422 37.672 13.2481C38.2496 14.054 38.571 15.0153 38.5941 16.0065C38.5941 20.5153 35.2059 21.9624 31.0147 21.9624H21.4235V1.7124H31.0323C35.0382 1.7124 38.0029 3.50358 38.0029 7.58005ZM25.1912 9.83887H31.0323C33.4323 9.83887 34.2176 8.82417 34.2176 7.66828C34.2176 6.74181 33.4588 5.18005 31.0323 5.18005H25.1912V9.83887ZM25.1912 18.4065H31.0323C32.5941 18.4065 34.8265 17.8859 34.8265 15.9712C34.8265 14.0565 32.5941 13.1918 31.0323 13.1918H25.1912V18.4065Z" fill="#C0EBA6"/>
<path d="M43.1559 7.69465L43.4118 9.34465C43.8223 8.66143 44.4184 8.10882 45.1306 7.75111C45.8429 7.39341 46.6421 7.24531 47.4353 7.32406C48.7884 7.30155 50.101 7.78628 51.1147 8.68289L49.5177 11.7446C48.8203 11.1266 47.9068 10.8094 46.9765 10.8623C46.4966 10.8251 46.0144 10.8935 45.5639 11.0629C45.1134 11.2322 44.7055 11.4983 44.369 11.8424C44.0324 12.1865 43.7755 12.6002 43.6162 13.0544C43.4569 13.5086 43.3992 13.9922 43.4471 14.4711V21.9623H39.9177V7.69465H43.1559Z" fill="#C0EBA6"/>
<path d="M65.4619 14.8417C65.507 15.8305 65.3456 16.8179 64.9878 17.7408C64.6299 18.6637 64.0836 19.5019 63.3837 20.2018C62.6838 20.9017 61.8456 21.448 60.9227 21.8059C59.9998 22.1637 59.0124 22.3251 58.0236 22.28C53.3913 22.28 50.6207 18.9535 50.6207 14.8417C50.5788 13.8609 50.74 12.882 51.0941 11.9664C51.4481 11.0508 51.9875 10.2182 52.6784 9.52068C53.3692 8.82321 54.1966 8.27593 55.1088 7.91313C56.021 7.55033 56.9983 7.37983 57.9795 7.41231C58.9678 7.3743 59.9533 7.54005 60.8748 7.89927C61.7963 8.25848 62.634 8.80347 63.3358 9.50033C64.0377 10.1972 64.5886 11.031 64.9543 11.9499C65.3201 12.8688 65.4929 13.8532 65.4619 14.8417ZM54.1501 14.8417C54.1501 17.0123 55.4471 19.0417 58.0236 19.0417C60.6001 19.0417 61.906 17.0123 61.906 14.8417C61.9308 14.3092 61.8498 13.777 61.6677 13.276C61.4855 12.775 61.2058 12.3151 60.8448 11.9229C60.4837 11.5306 60.0485 11.2139 59.5642 10.991C59.08 10.768 58.5564 10.6433 58.0236 10.6241C55.4824 10.6241 54.1501 12.7064 54.1501 14.8417Z" fill="#C0EBA6"/>
<path d="M76.2177 21.9625V14.3213C76.2177 12.4419 75.2382 10.7389 73.297 10.7389C71.3559 10.7389 70.2618 12.4419 70.2618 14.3213V21.9625H66.7324V7.66833H70.0059L70.2618 9.43304C70.6517 8.7957 71.2072 8.27608 71.8691 7.92957C72.5311 7.58306 73.2746 7.42263 74.0206 7.46539C74.9208 7.40584 75.8168 7.63231 76.5806 8.11246C77.3444 8.59261 77.9369 9.30187 78.2735 10.1389C78.7423 9.29568 79.438 8.60069 80.2818 8.13281C81.1255 7.66493 82.0835 7.44288 83.0471 7.49186C87.0971 7.49186 89.0912 9.9801 89.0912 14.2683V21.9625H85.5618V14.2683C85.5618 12.3889 84.7853 10.7919 82.8706 10.7919C80.9559 10.7919 79.7823 12.4419 79.7823 14.3213V21.9625H76.2177Z" fill="#C0EBA6"/>
<path d="M94.5087 7.69482V15.1595C94.5087 17.3301 95.6911 18.9801 97.9499 18.9801C98.4541 18.9669 98.9505 18.8521 99.4093 18.6426C99.8681 18.4332 100.28 18.1333 100.62 17.7609C100.96 17.3886 101.222 16.9515 101.389 16.4757C101.557 15.9999 101.626 15.4952 101.594 14.9919V7.69482H105.123V21.9889H101.965L101.735 20.0566C101.131 20.7385 100.388 21.2823 99.5549 21.6508C98.722 22.0192 97.8194 22.2038 96.9087 22.1919C93.494 22.1919 91.0058 19.6154 91.0058 15.1948V7.69482H94.5087Z" fill="#C0EBA6"/>
<path d="M117.565 21.9623V14.4976C117.565 12.327 116.382 10.677 114.123 10.677C113.618 10.6901 113.121 10.8052 112.662 11.0152C112.202 11.2253 111.79 11.5259 111.45 11.8992C111.11 12.2725 110.848 12.7108 110.681 13.1876C110.515 13.6644 110.446 14.17 110.479 14.6741V21.9623H106.95V7.66817H110.1L110.329 9.60935C110.927 8.9488 111.655 8.41951 112.467 8.05498C113.28 7.69046 114.159 7.49865 115.05 7.4917C118.403 7.4917 121.094 10.0064 121.094 14.4976V21.9623H117.565Z" fill="#C0EBA6"/>
<path d="M137.153 14.8418C137.198 15.8306 137.037 16.818 136.679 17.7409C136.321 18.6638 135.775 19.502 135.075 20.2019C134.375 20.9018 133.537 21.4481 132.614 21.8059C131.691 22.1638 130.703 22.3252 129.715 22.28C125.082 22.28 122.312 18.9536 122.312 14.8418C122.27 13.8595 122.431 12.879 122.786 11.9622C123.142 11.0453 123.683 10.2118 124.375 9.51409C125.068 8.81635 125.898 8.26945 126.812 7.90776C127.726 7.54607 128.705 7.37741 129.688 7.41238C130.675 7.37685 131.659 7.54444 132.578 7.90477C133.497 8.26509 134.333 8.81047 135.033 9.50707C135.733 10.2037 136.282 11.0366 136.647 11.9543C137.011 12.872 137.184 13.8548 137.153 14.8418ZM125.841 14.8418C125.841 17.0124 127.138 19.0418 129.715 19.0418C132.291 19.0418 133.588 17.0124 133.588 14.8418C133.614 14.3097 133.534 13.7778 133.353 13.2768C133.172 12.7758 132.893 12.3158 132.533 11.9235C132.172 11.5311 131.738 11.2142 131.254 10.9912C130.77 10.7681 130.247 10.6434 129.715 10.6241C127.173 10.6241 125.841 12.7065 125.841 14.8418Z" fill="#C0EBA6"/>
</g>
<defs>
<clipPath id="clip0_1167_1733">
<rect width="137.16" height="24" fill="white"/>
</clipPath>
</defs>
</svg>
