<svg width="898" height="16" viewBox="0 0 898 16" fill="none" xmlns="http://www.w3.org/2000/svg">
<g clip-path="url(#clip0_1093_4217)">
<path d="M8.13529 4.95294L3 8.05882L0.847059 9.36471L0.0823529 8.95294L0.0411765 6.46471L0 3.1L5.11765 0L8.13529 4.95294Z" fill="#F26869"/>
<path d="M0.105881 10.6411L6.55294 14.1058L5.52941 15.9999L0.141175 13.0941L0.105881 10.6411Z" fill="white"/>
<path d="M8.28236 10.8999L7.24707 12.8117L0.847066 9.3646L0.0823599 8.95284L0.0411835 6.4646L3.00001 8.05872L8.28236 10.8999Z" fill="white"/>
<path d="M5.7 4.17636L5.69412 3.74694L4.52941 3.76459L5.08235 2.73518L4.7 2.5293L4.15294 3.54694L3.55294 2.55871L3.18235 2.78224L3.78235 3.77047L2.62353 3.78812L2.62941 4.21753L3.8 4.20577L3.24706 5.2293L3.62353 5.43518L4.17059 4.41753L4.77647 5.40577L5.14117 5.18224L4.54117 4.194L5.7 4.17636Z" fill="white"/>
<path d="M14.7294 2.98828V5.29416H16.9647V7.02357H14.7118V10.553C14.6857 10.7027 14.6939 10.8563 14.7357 11.0024C14.7775 11.1484 14.8519 11.2831 14.9532 11.3963C15.0545 11.5095 15.1802 11.5983 15.3207 11.656C15.4613 11.7137 15.6131 11.7388 15.7647 11.7295C16.1053 11.7049 16.4365 11.6066 16.7353 11.4412L17.3235 13.153C16.7955 13.3726 16.2306 13.4904 15.6588 13.5C13.8941 13.5648 12.7471 12.5589 12.7471 10.5589V7.02946H11.2059V5.29416H12.7235V3.20593L14.7294 2.98828Z" fill="white"/>
<path d="M19.8588 5.27637V9.52343C19.8588 10.7587 20.5353 11.694 21.8176 11.694C22.1053 11.6875 22.3887 11.6228 22.6508 11.504C22.9129 11.3852 23.1482 11.2146 23.3427 11.0025C23.5372 10.7904 23.6868 10.5412 23.7826 10.2699C23.8784 9.99852 23.9183 9.7106 23.9 9.42343V5.30578H25.8882V13.4058H24.1235L23.9941 12.2999C23.6505 12.6881 23.2272 12.9978 22.7532 13.208C22.2792 13.4181 21.7655 13.5237 21.2471 13.5175C19.3059 13.5175 17.8882 12.0528 17.8882 9.54107V5.27637H19.8588Z" fill="white"/>
<path d="M28.8647 5.27635L29.0118 6.21753C29.2411 5.82346 29.5784 5.50327 29.9839 5.2948C30.3894 5.08632 30.8461 4.99828 31.3 5.04105C32.0675 5.03054 32.8116 5.30512 33.3882 5.81164L32.4824 7.57635C32.2881 7.39681 32.0602 7.25757 31.8119 7.16669C31.5635 7.07582 31.2995 7.03512 31.0353 7.04694C30.7621 7.02328 30.487 7.05998 30.2295 7.15445C29.9721 7.24892 29.7385 7.39884 29.5455 7.5936C29.3524 7.78836 29.2045 8.02319 29.1123 8.28145C29.02 8.53972 28.9857 8.81511 29.0118 9.08811V13.3646H27.0059V5.27635H28.8647Z" fill="white"/>
<path d="M35.1353 13.3883V7.15297H33.6176V5.38826H35.1353V4.8412C35.1029 4.42389 35.1599 4.00448 35.3026 3.61098C35.4453 3.21748 35.6703 2.85897 35.9626 2.5594C36.255 2.25983 36.6079 2.02611 36.9978 1.87386C37.3877 1.7216 37.8056 1.65431 38.2235 1.6765C38.9745 1.68747 39.7061 1.91635 40.3294 2.33532L39.5941 3.82944C39.2347 3.56571 38.8043 3.4161 38.3588 3.40003C37.6647 3.40003 37.1412 3.86473 37.1412 4.84709V5.39414H39.4941V7.15885H37.1412V13.3941L35.1353 13.3883Z" fill="white"/>
</g>
<path d="M165.663 3.55396H163.911L160.335 12.446H162.075L165.663 3.55396Z" fill="white"/>
<g clip-path="url(#clip1_1093_4217)">
<path d="M293.799 4.95294L288.663 8.05882L286.51 9.36471L285.746 8.95294L285.704 6.46471L285.663 3.1L290.781 0L293.799 4.95294Z" fill="#F26869"/>
<path d="M285.769 10.6411L292.216 14.1058L291.193 15.9999L285.804 13.0941L285.769 10.6411Z" fill="white"/>
<path d="M293.946 10.8999L292.91 12.8117L286.51 9.3646L285.746 8.95284L285.704 6.4646L288.663 8.05872L293.946 10.8999Z" fill="white"/>
<path d="M291.363 4.17636L291.357 3.74694L290.193 3.76459L290.746 2.73518L290.363 2.5293L289.816 3.54694L289.216 2.55871L288.846 2.78224L289.446 3.77047L288.287 3.78812L288.293 4.21753L289.463 4.20577L288.91 5.2293L289.287 5.43518L289.834 4.41753L290.44 5.40577L290.804 5.18224L290.204 4.194L291.363 4.17636Z" fill="white"/>
<path d="M300.393 2.98828V5.29416H302.628V7.02357H300.375V10.553C300.349 10.7027 300.357 10.8563 300.399 11.0024C300.441 11.1484 300.515 11.2831 300.617 11.3963C300.718 11.5095 300.843 11.5983 300.984 11.656C301.125 11.7137 301.276 11.7388 301.428 11.7295C301.769 11.7049 302.1 11.6066 302.399 11.4412L302.987 13.153C302.459 13.3726 301.894 13.4904 301.322 13.5C299.557 13.5648 298.41 12.5589 298.41 10.5589V7.02946H296.869V5.29416H298.387V3.20593L300.393 2.98828Z" fill="white"/>
<path d="M305.522 5.27637V9.52343C305.522 10.7587 306.199 11.694 307.481 11.694C307.769 11.6875 308.052 11.6228 308.314 11.504C308.576 11.3852 308.812 11.2146 309.006 11.0025C309.201 10.7904 309.35 10.5412 309.446 10.2699C309.542 9.99852 309.582 9.7106 309.563 9.42343V5.30578H311.552V13.4058H309.787L309.657 12.2999C309.314 12.6881 308.891 12.9978 308.417 13.208C307.943 13.4181 307.429 13.5237 306.91 13.5175C304.969 13.5175 303.552 12.0528 303.552 9.54107V5.27637H305.522Z" fill="white"/>
<path d="M314.528 5.27635L314.675 6.21753C314.904 5.82346 315.242 5.50327 315.647 5.2948C316.053 5.08632 316.509 4.99828 316.963 5.04105C317.731 5.03054 318.475 5.30512 319.052 5.81164L318.146 7.57635C317.951 7.39681 317.724 7.25757 317.475 7.16669C317.227 7.07582 316.963 7.03512 316.699 7.04694C316.425 7.02328 316.15 7.05998 315.893 7.15445C315.635 7.24892 315.402 7.39884 315.209 7.5936C315.016 7.78836 314.868 8.02319 314.776 8.28145C314.683 8.53972 314.649 8.81511 314.675 9.08811V13.3646H312.669V5.27635H314.528Z" fill="white"/>
<path d="M320.799 13.3883V7.15297H319.281V5.38826H320.799V4.8412C320.766 4.42389 320.823 4.00448 320.966 3.61098C321.109 3.21748 321.334 2.85897 321.626 2.5594C321.918 2.25983 322.271 2.02611 322.661 1.87386C323.051 1.7216 323.469 1.65431 323.887 1.6765C324.638 1.68747 325.369 1.91635 325.993 2.33532L325.257 3.82944C324.898 3.56571 324.468 3.4161 324.022 3.40003C323.328 3.40003 322.804 3.86473 322.804 4.84709V5.39414H325.157V7.15885H322.804V13.3941L320.799 13.3883Z" fill="white"/>
</g>
<path d="M451.327 3.55396H449.575L445.999 12.446H447.739L451.327 3.55396Z" fill="white"/>
<g clip-path="url(#clip2_1093_4217)">
<path d="M579.462 4.95294L574.327 8.05882L572.174 9.36471L571.409 8.95294L571.368 6.46471L571.327 3.1L576.444 0L579.462 4.95294Z" fill="#F26869"/>
<path d="M571.432 10.6411L577.88 14.1058L576.856 15.9999L571.468 13.0941L571.432 10.6411Z" fill="white"/>
<path d="M579.609 10.8999L578.574 12.8117L572.174 9.3646L571.409 8.95284L571.368 6.4646L574.327 8.05872L579.609 10.8999Z" fill="white"/>
<path d="M577.027 4.17636L577.021 3.74694L575.856 3.76459L576.409 2.73518L576.027 2.5293L575.48 3.54694L574.88 2.55871L574.509 2.78224L575.109 3.77047L573.95 3.78812L573.956 4.21753L575.127 4.20577L574.574 5.2293L574.95 5.43518L575.497 4.41753L576.103 5.40577L576.468 5.18224L575.868 4.194L577.027 4.17636Z" fill="white"/>
<path d="M586.056 2.98828V5.29416H588.291V7.02357H586.038V10.553C586.012 10.7027 586.02 10.8563 586.062 11.0024C586.104 11.1484 586.178 11.2831 586.28 11.3963C586.381 11.5095 586.507 11.5983 586.647 11.656C586.788 11.7137 586.94 11.7388 587.091 11.7295C587.432 11.7049 587.763 11.6066 588.062 11.4412L588.65 13.153C588.122 13.3726 587.557 13.4904 586.985 13.5C585.221 13.5648 584.074 12.5589 584.074 10.5589V7.02946H582.532V5.29416H584.05V3.20593L586.056 2.98828Z" fill="white"/>
<path d="M591.185 5.27637V9.52343C591.185 10.7587 591.862 11.694 593.144 11.694C593.432 11.6875 593.715 11.6228 593.977 11.504C594.239 11.3852 594.475 11.2146 594.669 11.0025C594.864 10.7904 595.013 10.5412 595.109 10.2699C595.205 9.99852 595.245 9.7106 595.227 9.42343V5.30578H597.215V13.4058H595.45L595.321 12.2999C594.977 12.6881 594.554 12.9978 594.08 13.208C593.606 13.4181 593.092 13.5237 592.574 13.5175C590.632 13.5175 589.215 12.0528 589.215 9.54107V5.27637H591.185Z" fill="white"/>
<path d="M600.191 5.27635L600.338 6.21753C600.568 5.82346 600.905 5.50327 601.311 5.2948C601.716 5.08632 602.173 4.99828 602.627 5.04105C603.394 5.03054 604.138 5.30512 604.715 5.81164L603.809 7.57635C603.615 7.39681 603.387 7.25757 603.138 7.16669C602.89 7.07582 602.626 7.03512 602.362 7.04694C602.089 7.02328 601.814 7.05998 601.556 7.15445C601.299 7.24892 601.065 7.39884 600.872 7.5936C600.679 7.78836 600.531 8.02319 600.439 8.28145C600.347 8.53972 600.312 8.81511 600.338 9.08811V13.3646H598.332V5.27635H600.191Z" fill="white"/>
<path d="M606.462 13.3883V7.15297H604.944V5.38826H606.462V4.8412C606.429 4.42389 606.487 4.00448 606.629 3.61098C606.772 3.21748 606.997 2.85897 607.289 2.5594C607.582 2.25983 607.934 2.02611 608.324 1.87386C608.714 1.7216 609.132 1.65431 609.55 1.6765C610.301 1.68747 611.033 1.91635 611.656 2.33532L610.921 3.82944C610.561 3.56571 610.131 3.4161 609.685 3.40003C608.991 3.40003 608.468 3.86473 608.468 4.84709V5.39414H610.821V7.15885H608.468V13.3941L606.462 13.3883Z" fill="white"/>
</g>
<path d="M736.99 3.55396H735.238L731.662 12.446H733.402L736.99 3.55396Z" fill="white"/>
<g clip-path="url(#clip3_1093_4217)">
<path d="M865.125 4.95294L859.99 8.05882L857.837 9.36471L857.072 8.95294L857.031 6.46471L856.99 3.1L862.108 0L865.125 4.95294Z" fill="#F26869"/>
<path d="M857.096 10.6411L863.543 14.1058L862.519 15.9999L857.131 13.0941L857.096 10.6411Z" fill="white"/>
<path d="M865.272 10.8999L864.237 12.8117L857.837 9.3646L857.072 8.95284L857.031 6.4646L859.99 8.05872L865.272 10.8999Z" fill="white"/>
<path d="M862.69 4.17636L862.684 3.74694L861.519 3.76459L862.072 2.73518L861.69 2.5293L861.143 3.54694L860.543 2.55871L860.172 2.78224L860.772 3.77047L859.613 3.78812L859.619 4.21753L860.79 4.20577L860.237 5.2293L860.613 5.43518L861.16 4.41753L861.766 5.40577L862.131 5.18224L861.531 4.194L862.69 4.17636Z" fill="white"/>
<path d="M871.719 2.98828V5.29416H873.955V7.02357H871.702V10.553C871.676 10.7027 871.684 10.8563 871.726 11.0024C871.767 11.1484 871.842 11.2831 871.943 11.3963C872.044 11.5095 872.17 11.5983 872.311 11.656C872.451 11.7137 872.603 11.7388 872.755 11.7295C873.095 11.7049 873.426 11.6066 873.725 11.4412L874.313 13.153C873.785 13.3726 873.221 13.4904 872.649 13.5C870.884 13.5648 869.737 12.5589 869.737 10.5589V7.02946H868.196V5.29416H869.713V3.20593L871.719 2.98828Z" fill="white"/>
<path d="M876.849 5.27637V9.52343C876.849 10.7587 877.525 11.694 878.808 11.694C879.095 11.6875 879.379 11.6228 879.641 11.504C879.903 11.3852 880.138 11.2146 880.333 11.0025C880.527 10.7904 880.677 10.5412 880.772 10.2699C880.868 9.99852 880.908 9.7106 880.89 9.42343V5.30578H882.878V13.4058H881.113L880.984 12.2999C880.64 12.6881 880.217 12.9978 879.743 13.208C879.269 13.4181 878.755 13.5237 878.237 13.5175C876.296 13.5175 874.878 12.0528 874.878 9.54107V5.27637H876.849Z" fill="white"/>
<path d="M885.855 5.27635L886.002 6.21753C886.231 5.82346 886.568 5.50327 886.974 5.2948C887.379 5.08632 887.836 4.99828 888.29 5.04105C889.057 5.03054 889.801 5.30512 890.378 5.81164L889.472 7.57635C889.278 7.39681 889.05 7.25757 888.802 7.16669C888.553 7.07582 888.289 7.03512 888.025 7.04694C887.752 7.02328 887.477 7.05998 887.219 7.15445C886.962 7.24892 886.728 7.39884 886.535 7.5936C886.342 7.78836 886.194 8.02319 886.102 8.28145C886.01 8.53972 885.976 8.81511 886.002 9.08811V13.3646H883.996V5.27635H885.855Z" fill="white"/>
<path d="M892.125 13.3883V7.15297H890.608V5.38826H892.125V4.8412C892.093 4.42389 892.15 4.00448 892.293 3.61098C892.435 3.21748 892.66 2.85897 892.953 2.5594C893.245 2.25983 893.598 2.02611 893.988 1.87386C894.378 1.7216 894.795 1.65431 895.213 1.6765C895.964 1.68747 896.696 1.91635 897.319 2.33532L896.584 3.82944C896.225 3.56571 895.794 3.4161 895.349 3.40003C894.655 3.40003 894.131 3.86473 894.131 4.84709V5.39414H896.484V7.15885H894.131V13.3941L892.125 13.3883Z" fill="white"/>
</g>
<defs>
<clipPath id="clip0_1093_4217">
<rect width="40.3353" height="16" fill="white"/>
</clipPath>
<clipPath id="clip1_1093_4217">
<rect width="40.3353" height="16" fill="white" transform="translate(285.663)"/>
</clipPath>
<clipPath id="clip2_1093_4217">
<rect width="40.3353" height="16" fill="white" transform="translate(571.327)"/>
</clipPath>
<clipPath id="clip3_1093_4217">
<rect width="40.3353" height="16" fill="white" transform="translate(856.99)"/>
</clipPath>
</defs>
</svg>
