<svg width="1066" height="63" viewBox="0 0 1066 63" fill="none" xmlns="http://www.w3.org/2000/svg">
<g opacity="0.2">
<path d="M26.6641 0L11.0001 62.92H5.91278e-05L15.6641 0H26.6641Z" fill="#FF6868"/>
<path d="M53.328 0L37.664 62.92H26.664L42.328 0H53.328Z" fill="#FF6868"/>
<path d="M79.992 0L64.328 62.92H53.328L68.992 0H79.992Z" fill="#FF6868"/>
<path d="M106.656 0L90.992 62.92H79.992L95.656 0H106.656Z" fill="#FF6868"/>
<path d="M133.32 0L117.656 62.92H106.656L122.32 0H133.32Z" fill="#FF6868"/>
<path d="M159.984 0L144.32 62.92H133.32L148.984 0H159.984Z" fill="#FF6868"/>
<path d="M186.648 0L170.984 62.92H159.984L175.648 0H186.648Z" fill="#FF6868"/>
<path d="M213.312 0L197.648 62.92H186.648L202.312 0H213.312Z" fill="#FF6868"/>
<path d="M239.976 0L224.312 62.92H213.312L228.976 0H239.976Z" fill="#FF6868"/>
<path d="M266.64 0L250.976 62.92H239.976L255.64 0H266.64Z" fill="#FF6868"/>
<path d="M293.304 0L277.64 62.92H266.64L282.304 0H293.304Z" fill="#FF6868"/>
<path d="M319.968 0L304.304 62.92H293.304L308.968 0H319.968Z" fill="#FF6868"/>
<path d="M346.632 0L330.968 62.92H319.968L335.632 0H346.632Z" fill="#FF6868"/>
<path d="M373.296 0L357.632 62.92H346.632L362.296 0H373.296Z" fill="#FF6868"/>
<path d="M399.96 0L384.296 62.92H373.296L388.96 0H399.96Z" fill="#FF6868"/>
<path d="M426.624 0L410.96 62.92H399.96L415.624 0H426.624Z" fill="#FF6868"/>
<path d="M453.288 0L437.624 62.92H426.624L442.288 0H453.288Z" fill="#FF6868"/>
<path d="M479.952 0L464.288 62.92H453.288L468.952 0H479.952Z" fill="#FF6868"/>
<path d="M506.616 0L490.952 62.92H479.952L495.616 0H506.616Z" fill="#FF6868"/>
<path d="M533.28 0L517.616 62.92H506.616L522.28 0H533.28Z" fill="#FF6868"/>
<path d="M559.944 0L544.28 62.92H533.28L548.944 0H559.944Z" fill="#FF6868"/>
<path d="M586.608 0L570.944 62.92H559.944L575.608 0H586.608Z" fill="#FF6868"/>
<path d="M613.272 0L597.608 62.92H586.608L602.272 0H613.272Z" fill="#FF6868"/>
<path d="M639.936 0L624.272 62.92H613.272L628.936 0H639.936Z" fill="#FF6868"/>
<path d="M666.6 0L650.936 62.92H639.936L655.6 0H666.6Z" fill="#FF6868"/>
<path d="M693.264 0L677.6 62.92H666.6L682.264 0H693.264Z" fill="#FF6868"/>
<path d="M719.928 0L704.264 62.92H693.264L708.928 0H719.928Z" fill="#FF6868"/>
<path d="M746.592 0L730.928 62.92H719.928L735.592 0H746.592Z" fill="#FF6868"/>
<path d="M773.256 0L757.592 62.92H746.592L762.256 0H773.256Z" fill="#FF6868"/>
<path d="M799.92 0L784.256 62.92H773.256L788.92 0H799.92Z" fill="#FF6868"/>
<path d="M826.584 0L810.92 62.92H799.92L815.584 0H826.584Z" fill="#FF6868"/>
<path d="M853.248 0L837.584 62.92H826.584L842.248 0H853.248Z" fill="#FF6868"/>
<path d="M879.912 0L864.248 62.92H853.248L868.912 0H879.912Z" fill="#FF6868"/>
<path d="M906.576 0L890.912 62.92H879.912L895.576 0H906.576Z" fill="#FF6868"/>
<path d="M933.24 0L917.576 62.92H906.576L922.24 0H933.24Z" fill="#FF6868"/>
<path d="M959.904 0L944.24 62.92H933.24L948.904 0H959.904Z" fill="#FF6868"/>
<path d="M986.568 0L970.904 62.92H959.904L975.568 0H986.568Z" fill="#FF6868"/>
<path d="M1013.23 0L997.568 62.92H986.568L1002.23 0H1013.23Z" fill="#FF6868"/>
<path d="M1039.9 0L1024.23 62.92H1013.23L1028.9 0H1039.9Z" fill="#FF6868"/>
<path d="M1066.56 0L1050.9 62.92H1039.9L1055.56 0H1066.56Z" fill="#FF6868"/>
</g>
</svg>
